<?xml version="1.0" standalone="no"?>
<!DOCTYPE svg PUBLIC "-//W3C//DTD SVG 20010904//EN" "http://www.w3.org/TR/2001/REC-SVG-20010904/DTD/svg10.dtd">
<!-- Created using Krita: https://krita.org -->
<svg xmlns="http://www.w3.org/2000/svg" 
    xmlns:xlink="http://www.w3.org/1999/xlink"
    xmlns:krita="http://krita.org/namespaces/svg/krita"
    xmlns:sodipodi="http://sodipodi.sourceforge.net/DTD/sodipodi-0.dtd"
    width="720pt"
    height="720pt"
    viewBox="0 0 720 720">
<defs/>
<path id="shape0" transform="matrix(0.999999997760739 0 0 0.999999997760739 358.661545439262 472.536470762469)" fill="#d6af59" fill-rule="evenodd" stroke="#000000" stroke-opacity="0" stroke-width="0" stroke-linecap="square" stroke-linejoin="bevel" d="M0.226179 55.0638L0 165.473L43.9227 150.953L44.3045 68.0944L124.999 40.0929L127.672 127.916L174.638 110.86L174.638 0L0.175693 54.9628"/><path id="shape1" transform="matrix(0.999999997760739 0 0 0.999999997760739 191.300669203123 473.618343678591)" fill="#b6944a" fill-rule="evenodd" stroke="#000000" stroke-opacity="0" stroke-width="0" stroke-linecap="square" stroke-linejoin="bevel" d="M168.699 163.108L168.699 53.8267L0.190925 0L0 113.342L40.093 126.834L44.1659 41.5567L125.243 68.5399L125.752 155.09L168.699 163.108"/><path id="shape2" transform="matrix(0.999999997760739 0 0 0.999999997760739 442.040754714456 516.702372772457)" fill="#b6944a" fill-rule="evenodd" stroke="#000000" stroke-opacity="0" stroke-width="0" stroke-linecap="square" stroke-linejoin="bevel" d="M0 13.8734L43.0204 0L42.5113 81.586L1.90919 68.7308L0 13.8734"/><path id="shape3" transform="matrix(0.999999997760739 0 0 0.999999997760739 235.800005350594 517.320000467126)" fill="#907438" fill-rule="evenodd" stroke="#000000" stroke-opacity="0" stroke-width="0" stroke-linecap="square" stroke-linejoin="bevel" d="M0 81.36L1.08 0L44.1 13.86L42.48 69.3L0 81.36"/><path id="shape4" transform="matrix(0.999999997760739 0 0 0.999999997760739 187.200004706084 416.340012746118)" fill="#eec05c" fill-rule="evenodd" stroke="#000000" stroke-opacity="0" stroke-width="0" stroke-linecap="square" stroke-linejoin="bevel" d="M172.8 0L0 58.05L172.8 112.5L345.464 58.4875L172.8 0"/><path id="shape01" transform="matrix(0.99999996128918 0 0 0.99999996128918 187.736858632853 415.305012313318)" fill="none" stroke="#000000" stroke-width="14.4" stroke-linecap="square" stroke-linejoin="bevel" d="M172.263 0L0.0636391 55.8314L0 171.783L46.0832 186.345L46.966 99.4881L128.043 124.944L128.425 213.658L172.263 227.658L218.157 212.13L218.703 124.335L298.803 99.315L299.488 186.038L346.454 171.274L346.143 55.935L172.263 0"/><path id="shape11" transform="matrix(0.99999996128918 0 0 0.99999996128918 236.993928609938 532.103118476701)" fill="none" stroke="#000000" stroke-width="14.4" stroke-linecap="square" stroke-linejoin="bevel" d="M41.7476 0L41.7476 55.1119L0 67.458"/><path id="shape21" transform="matrix(0.99999996128918 0 0 0.99999996128918 442.620027169763 531.360007830067)" fill="none" stroke="#000000" stroke-width="14.4" stroke-linecap="square" stroke-linejoin="bevel" d="M0 0L0.18 55.62L41.13 67.995"/><circle id="shape02" transform="matrix(1.00000001061919 0 0 1.00000001061919 271.440006062823 124.560001322726)" r="88.56" cx="88.56" cy="88.56" fill="none" stroke="#cd1a17" stroke-width="72" stroke-linecap="square" stroke-linejoin="bevel"/><path id="shape12" transform="matrix(1.00000001061919 0 0 1.00000001061919 311.400006487165 165.240001754714)" sodipodi:type="arc" sodipodi:rx="48.6" sodipodi:ry="48.6" sodipodi:cx="48.6" sodipodi:cy="48.6" sodipodi:start="6.28318530717959" sodipodi:end="6.28318530717958" sodipodi:open="true" d="M97.2 48.6C97.2 21.759 75.441 -9.96749e-14 48.6 0C21.759 9.96749e-14 -2.05527e-14 21.759 0 48.6C2.05527e-14 75.441 21.759 97.2 48.6 97.2C75.441 97.2 97.2 75.441 97.2 48.6Z" fill="none" stroke="#000000" stroke-width="14.4" stroke-linecap="square" stroke-linejoin="bevel"/><path id="shape03" transform="matrix(1.00000000251481 0 0 1.00000000251481 235.800006690918 89.6400019584667)" sodipodi:type="arc" sodipodi:rx="124.2" sodipodi:ry="124.2" sodipodi:cx="124.2" sodipodi:cy="124.2" sodipodi:start="6.28318530717959" sodipodi:end="6.28318530717958" sodipodi:open="true" d="M248.4 124.2C248.4 55.6062 192.794 -2.54725e-13 124.2 0C55.6062 2.54725e-13 -5.25235e-14 55.6062 0 124.2C5.25235e-14 192.794 55.6062 248.4 124.2 248.4C192.794 248.4 248.4 192.794 248.4 124.2Z" fill="none" stroke="#000000" stroke-width="14.4" stroke-linecap="square" stroke-linejoin="bevel"/><path id="shape01" transform="matrix(1.00000001588016 0 0 1.00000001588016 259.200019082283 276.480015550994)" fill="#cd1a17" fill-rule="evenodd" stroke="#000000" stroke-opacity="0" stroke-width="0" stroke-linecap="square" stroke-linejoin="bevel" d="M100.8 189.74L201.42 0.179996L0 0L100.8 189.74"/><path id="shape02" transform="matrix(1.00000002890532 0 0 1.00000002890532 256.140027482054 282.60002523417)" fill="none" stroke="#000000" stroke-width="14.4" stroke-linecap="square" stroke-linejoin="bevel" d="M0 0L103.86 189L207.36 0.54"/>
</svg>
