<?xml version="1.0" standalone="no"?>
<!DOCTYPE svg PUBLIC "-//W3C//DTD SVG 20010904//EN" "http://www.w3.org/TR/2001/REC-SVG-20010904/DTD/svg10.dtd">
<!-- Created using Krita: https://krita.org -->
<svg xmlns="http://www.w3.org/2000/svg" 
    xmlns:xlink="http://www.w3.org/1999/xlink"
    xmlns:krita="http://krita.org/namespaces/svg/krita"
    xmlns:sodipodi="http://sodipodi.sourceforge.net/DTD/sodipodi-0.dtd"
    width="720pt"
    height="720pt"
    viewBox="0 0 720 720">
<defs/>
<path id="shape0" transform="matrix(0.999999944245037 0 0 0.999999944245037 438.731476529404 490.680123549959)" fill="#b6944a" fill-rule="evenodd" stroke="#000000" stroke-opacity="0" stroke-width="0" stroke-linecap="square" stroke-linejoin="bevel" d="M0.254558 84.3861L0 18.2009L59.4394 0L59.4394 96.2231L0.127279 84.3861"/><path id="shape1" transform="matrix(0.999999944245037 0 0 0.999999944245037 226.811571638501 493.989353850518)" fill="#907438" fill-rule="evenodd" stroke="#000000" stroke-opacity="0" stroke-width="0" stroke-linecap="square" stroke-linejoin="bevel" d="M54.221 81.7133L58.0384 14.7806L2.54558 0L0 95.4594L53.9664 81.8406"/><path id="shape01" transform="matrix(0.999999934834769 0 0 0.999999934834769 187.864125320363 405.148496480611)" fill="#eec05c" fill-rule="evenodd" stroke="#000000" stroke-opacity="0" stroke-width="0" stroke-linecap="square" stroke-linejoin="bevel" d="M0.254557 68.7308L172.136 124.479L345.945 69.2399L346.199 57.0211L172.136 0L0 55.4937L0.254557 68.7308"/><path id="shape02" transform="matrix(0.99999995477116 0 0 0.99999995477116 187.164094028618 463.696933843087)" fill="#b6944a" fill-rule="evenodd" stroke="#000000" stroke-opacity="0" stroke-width="0" stroke-linecap="square" stroke-linejoin="bevel" d="M180.576 166.843L180.927 56.6393L0 0L0.125913 111.043L44.3159 126.613L45.3959 32.8331L130.356 60.1031L130.143 153.753L180.396 167.203"/><path id="shape11" transform="matrix(0.99999995477116 0 0 0.99999995477116 228.33891394562 493.73481283053)" fill="none" stroke="#b6944a" stroke-width="14.4" stroke-linecap="square" stroke-linejoin="miter" stroke-miterlimit="2" d="M0 9.92778L13.6189 0"/><path id="shape03" transform="matrix(0.999999974145432 0 0 0.999999974145432 359.999992320216 463.951509511934)" fill="#d6af59" fill-rule="evenodd" stroke="#000000" stroke-opacity="0" stroke-width="0" stroke-linecap="square" stroke-linejoin="bevel" d="M0 167.818L0 54.5385L172.727 0L173.88 112.229L128.561 125.434L128.498 32.5835L46.2753 58.1666L45.257 152.226L0 167.818"/><path id="shape12" transform="matrix(0.999999974145432 0 0 0.999999974145432 479.333530332366 493.607552577422)" fill="none" stroke="#d6af59" stroke-width="14.4" stroke-linecap="square" stroke-linejoin="miter" stroke-miterlimit="2" d="M16.6736 10.8187L0 0"/><path id="shape04" transform="matrix(0.999999972550649 0 0 0.999999972550649 187.673211212917 405.148493498476)" fill="none" stroke="#846626" stroke-width="14.4" stroke-linecap="square" stroke-linejoin="bevel" d="M172.327 0L345.847 55.2915L346.657 170.672L301.027 184.622L255.217 171.122L254.677 112.442L218.587 123.962L218.317 211.532L172.327 226.562L128.587 212.701L128.361 124.734L91.4168 112.892L90.941 171.381L43.8477 184.873L0 170.936L0.246786 55.2015L172.327 0"/><circle id="shape01" transform="matrix(0.999999972919357 0 0 0.999999972919357 264.240000496319 123.11999916554)" r="95.4" cx="95.4" cy="95.4" fill="none" stroke="#cb0300" stroke-width="72" stroke-linecap="square" stroke-linejoin="bevel"/><circle id="shape011" transform="matrix(0.999999980766967 0 0 0.999999980766967 306.000005408931 164.159996288084)" r="54" cx="54" cy="54" fill="none" stroke="#8d0200" stroke-width="14.4" stroke-linecap="square" stroke-linejoin="bevel"/><ellipse id="shape021" transform="matrix(0.999999976833297 0 0 0.999999976833297 228.960002347859 87.120001865197)" rx="131.04" ry="130.68" cx="131.04" cy="130.68" fill="none" stroke="#8d0200" stroke-width="14.4" stroke-linecap="square" stroke-linejoin="bevel"/><path id="shape031" transform="matrix(0.999999998918467 0 0 0.999999998918467 256.340359531642 289.626273393877)" fill="#cb0300" fill-rule="evenodd" stroke="#000000" stroke-opacity="0" stroke-width="0" stroke-linecap="square" stroke-linejoin="bevel" d="M0.254558 0L206.447 0.254558L103.66 167.214L0 0.254558"/><path id="shape041" transform="matrix(0.999999945359694 0 0 0.999999945359694 253.285649013773 293.953744495995)" fill="none" stroke="#8d0200" stroke-width="14.4" stroke-linecap="square" stroke-linejoin="bevel" d="M0 0L106.714 165.766L212.554 1.42624"/>
</svg>
